<svg width="100" height="95" viewBox="0 0 100 95" fill="none" xmlns="http://www.w3.org/2000/svg">
<path fill-rule="evenodd" clip-rule="evenodd" d="M93.75 70.774C93.75 71.369 93.6281 71.9317 93.4531 72.468L65.625 44.3969L93.75 23.8814V70.774ZM11.1125 76.4774L39.3125 48.2948L50 55.871L60.225 48.2479L88.8875 76.4774C88.4406 76.5741 11.5594 76.5741 11.1125 76.4774ZM6.25 70.774V23.8814L34.375 44.3969L6.54688 72.468C6.37188 71.9317 6.25 71.369 6.25 70.774ZM90.625 18.0198L50 47.3277L9.375 18.0198H90.625ZM87.5 12.1582H12.5C5.59687 12.1582 0 17.4072 0 23.8814V70.774C0 77.2481 5.59687 82.4972 12.5 82.4972H87.5C94.4031 82.4972 100 77.2481 100 70.774V23.8814C100 17.4072 94.4031 12.1582 87.5 12.1582Z" fill="black"/>
</svg>
