<svg width="80" height="76" viewBox="0 0 80 76" fill="none" xmlns="http://www.w3.org/2000/svg">
<path d="M66.44 13.4781C59.715 7.171 50.425 3.26953 40.1625 3.26953C19.64 3.26953 3 18.8731 3 38.1225C3 44.528 4.8425 50.528 8.055 55.6861L7.96 55.522L2.6875 73.5804L22.385 68.734C27.5125 71.4046 33.63 72.9755 40.14 72.9755H40.155C60.6775 72.9684 77.31 57.3626 77.31 38.1155C77.31 28.4954 73.155 19.7875 66.4375 13.4804L66.44 13.4781ZM40.155 67.0881H40.1425C34.345 67.0881 28.9175 65.5875 24.285 62.978L24.425 63.0506L23.2975 62.4246L11.61 65.3015L14.7275 54.6123L13.9925 53.5174C11.03 49.1516 9.27 43.8317 9.27 38.1248C9.27 22.1298 23.0975 9.16159 40.1525 9.16159C57.2075 9.16159 71.035 22.1298 71.035 38.1248C71.035 54.1199 57.2125 67.0881 40.155 67.0881ZM57.095 45.3979C56.1675 44.9618 51.6025 42.8587 50.7525 42.5656C49.9 42.2748 49.28 42.1318 48.66 43.004C48.045 43.8739 46.265 45.834 45.7225 46.4155C45.1825 46.9993 44.6375 47.0696 43.71 46.6359C40.835 45.5433 38.365 44.0872 36.2175 42.2936L36.2425 42.3147C34.245 40.5797 32.5325 38.5938 31.15 36.4039L31.08 36.282C30.54 35.4121 31.0225 34.9408 31.485 34.5071C31.9025 34.1179 32.415 33.4895 32.8775 32.9831C33.2425 32.5634 33.555 32.0827 33.7925 31.5669L33.8075 31.527C33.915 31.3231 33.9775 31.0863 33.9775 30.833C33.9775 30.5259 33.885 30.2398 33.725 29.996L33.73 30.003C33.495 29.5669 31.64 25.2809 30.8675 23.5365C30.1125 21.839 29.345 22.0711 28.7775 22.043C28.2375 22.0196 27.6175 22.0149 26.9975 22.0149C26.01 22.0383 25.1325 22.4557 24.5275 23.1004L24.525 23.1051C22.52 24.8894 21.275 27.4052 21.275 30.1929C21.275 30.2539 21.275 30.3172 21.2775 30.3782V30.3688C21.605 33.8084 22.98 36.8963 25.095 39.412L25.065 39.3769C29.075 44.9548 34.42 49.4166 40.6925 52.4224L40.9275 52.5232C42.2975 53.1047 44.0525 53.726 45.8475 54.2583L46.22 54.3544C47.325 54.6826 48.5975 54.8726 49.9175 54.8726C50.675 54.8726 51.42 54.8092 52.14 54.6897L52.0625 54.6991C54.735 54.1762 56.9525 52.6639 58.305 50.5983L58.3275 50.5584C58.74 49.7003 58.98 48.6991 58.98 47.6464C58.98 47.2126 58.94 46.7883 58.8625 46.3756L58.87 46.4202C58.64 46.0567 58.02 45.841 57.09 45.4026L57.095 45.3979Z" fill="black"/>
</svg>
