<svg width="100" height="94" viewBox="0 0 100 94" fill="none" xmlns="http://www.w3.org/2000/svg">
<g clip-path="url(#clip0_183_370)">
<path d="M93.5256 8.23218L76.8607 0.417701C76.8584 0.416602 76.8561 0.415687 76.8537 0.414588C76.6899 0.337846 76.5205 0.270811 76.3465 0.214583C76.3284 0.208722 76.31 0.203777 76.2917 0.198099C76.2307 0.179234 76.1696 0.161101 76.1075 0.144984C76.0683 0.134727 76.029 0.125753 75.9897 0.116412C75.9505 0.107254 75.9112 0.0982793 75.8716 0.0902205C75.8193 0.0794144 75.7671 0.0700735 75.7148 0.0612821C75.6896 0.0570695 75.6646 0.0530401 75.6394 0.049377C75.5757 0.039853 75.5121 0.0317942 75.4484 0.0252006C75.4363 0.0239185 75.4242 0.0230027 75.4123 0.0217207C74.8088 -0.0359731 74.2128 0.0341752 73.6597 0.211835L50.0004 7.60836L26.3404 0.211835C25.7873 0.0341752 25.1915 -0.0357899 24.588 0.0217207C24.5759 0.0228196 24.564 0.0239185 24.5519 0.0252006C24.4882 0.0317942 24.4246 0.0400361 24.3609 0.049377C24.3357 0.0530401 24.3107 0.0570695 24.2855 0.0612821C24.2332 0.0700735 24.1809 0.0794144 24.1287 0.0902205C24.0891 0.0982793 24.0498 0.107254 24.0106 0.116412C23.9713 0.125569 23.9321 0.134544 23.8928 0.144984C23.8309 0.161101 23.7696 0.179234 23.7086 0.198099C23.6903 0.203777 23.6721 0.208722 23.6538 0.214583C23.4798 0.270811 23.3104 0.337846 23.1466 0.414588C23.1443 0.415687 23.1419 0.416602 23.1396 0.417701L6.47495 8.23218C5.06358 8.8941 4.17188 10.2471 4.17188 11.727V89.8731C4.17188 92.7777 7.4311 94.6668 10.2013 93.3678L25.3227 86.277L48.5939 93.5519C48.8645 93.6437 49.1467 93.7085 49.4362 93.7459C49.4403 93.7464 49.4442 93.747 49.4483 93.7473C49.5201 93.7563 49.5924 93.7636 49.6652 93.7691C49.685 93.7706 49.7047 93.772 49.7244 93.7733C49.7793 93.7768 49.8342 93.7792 49.8892 93.7805C49.9263 93.7814 49.9634 93.7819 50.0004 93.7819C50.0373 93.7819 50.0744 93.7814 50.1115 93.7805C50.1667 93.7792 50.2216 93.7768 50.2763 93.7733C50.296 93.772 50.3157 93.7708 50.3355 93.7691C50.4081 93.7636 50.4804 93.7563 50.5524 93.7473C50.5565 93.7468 50.5604 93.7464 50.5645 93.7459C50.854 93.7085 51.1362 93.6437 51.4068 93.5519L74.678 86.277L89.7994 93.3678C92.5696 94.6668 95.8288 92.7777 95.8288 89.8731V11.7271C95.8286 10.2471 94.9371 8.8941 93.5256 8.23218ZM12.5044 14.1419L20.8369 10.2346V79.6437L12.5044 83.5509V14.1419ZM29.1692 9.33349L45.834 14.5431V84.4519L29.1692 79.2422V9.33349ZM54.1665 14.5433L70.8313 9.33368V79.2424L54.1665 84.452V14.5433ZM87.4963 83.5509L79.1638 79.6437V10.2346L87.4963 14.1419V83.5509Z" fill="black"/>
</g>
<defs>
<clipPath id="clip0_183_370">
<rect width="100" height="93.7853" fill="white"/>
</clipPath>
</defs>
</svg>
