<svg width="80" height="76" viewBox="0 0 80 76" fill="none" xmlns="http://www.w3.org/2000/svg">
<path fill-rule="evenodd" clip-rule="evenodd" d="M40 56.3613C51.0457 56.3613 60 47.9634 60 37.6042C60 27.245 51.0457 18.8472 40 18.8472C28.9543 18.8472 20 27.245 20 37.6042C20 47.9634 28.9543 56.3613 40 56.3613ZM40 50.1089C47.3637 50.1089 53.3333 44.5103 53.3333 37.6042C53.3333 30.6981 47.3637 25.0995 40 25.0995C32.6362 25.0995 26.6667 30.6981 26.6667 37.6042C26.6667 44.5103 32.6362 50.1089 40 50.1089Z" fill="#0F0F0F"/>
<path d="M60.0013 15.7212C58.1603 15.7212 56.668 17.1208 56.668 18.8474C56.668 20.5739 58.1603 21.9735 60.0013 21.9735C61.8423 21.9735 63.3346 20.5739 63.3346 18.8474C63.3346 17.1208 61.8423 15.7212 60.0013 15.7212Z" fill="#0F0F0F"/>
<path fill-rule="evenodd" clip-rule="evenodd" d="M5.5119 13.4579C3.33203 17.4702 3.33203 22.7227 3.33203 33.2276V41.9809C3.33203 52.4858 3.33203 57.7384 5.5119 61.7505C7.42936 65.28 10.489 68.1495 14.2522 69.9477C18.5305 71.9922 24.131 71.9922 35.332 71.9922H44.6654C55.8664 71.9922 61.467 71.9922 65.745 69.9477C69.5084 68.1495 72.568 65.28 74.4854 61.7505C76.6654 57.7384 76.6654 52.4858 76.6654 41.9809V33.2276C76.6654 22.7227 76.6654 17.4702 74.4854 13.4579C72.568 9.92846 69.5084 7.05901 65.745 5.2607C61.467 3.21631 55.8664 3.21631 44.6654 3.21631H35.332C24.131 3.21631 18.5305 3.21631 14.2522 5.2607C10.489 7.05901 7.42936 9.92846 5.5119 13.4579ZM44.6654 9.46866H35.332C29.6215 9.46866 25.7395 9.47354 22.739 9.70344C19.8162 9.9274 18.3215 10.3333 17.2788 10.8316C14.77 12.0305 12.7303 13.9434 11.4519 16.2964C10.9207 17.2742 10.4878 18.676 10.249 21.4172C10.0039 24.2313 9.9987 27.872 9.9987 33.2276V41.9809C9.9987 47.3367 10.0039 50.9771 10.249 53.7913C10.4878 56.5326 10.9207 57.9344 11.4519 58.9123C12.7303 61.265 14.77 63.1779 17.2788 64.3768C18.3215 64.8751 19.8162 65.2812 22.739 65.5051C25.7395 65.7348 29.6215 65.7398 35.332 65.7398H44.6654C50.376 65.7398 54.2577 65.7348 57.2584 65.5051C60.1814 65.2812 61.676 64.8751 62.7187 64.3768C65.2274 63.1779 67.267 61.265 68.5454 58.9123C69.0767 57.9344 69.5097 56.5326 69.7484 53.7913C69.9934 50.9771 69.9987 47.3367 69.9987 41.9809V33.2276C69.9987 27.872 69.9934 24.2313 69.7484 21.4172C69.5097 18.676 69.0767 17.2742 68.5454 16.2964C67.267 13.9434 65.2274 12.0305 62.7187 10.8316C61.676 10.3333 60.1814 9.9274 57.2584 9.70344C54.2577 9.47354 50.376 9.46866 44.6654 9.46866Z" fill="#0F0F0F"/>
</svg>
