<svg width="80" height="76" viewBox="0 0 80 76" fill="none" xmlns="http://www.w3.org/2000/svg">
<path fill-rule="evenodd" clip-rule="evenodd" d="M65.9416 13.1531C67.1033 12.8949 67.9133 12.641 68.577 12.3744C69.507 12.0007 70.2779 11.553 71.4963 10.7991C72.52 10.1654 73.8319 10.1103 74.9119 10.6554C75.992 11.2005 76.6656 12.2579 76.6656 13.4083C76.6656 16.7874 76.2166 19.557 75.1773 21.9944C74.3026 24.0446 73.074 25.7098 71.6043 27.2254C70.9836 37.7391 67.7386 45.9957 62.7776 52.2508C57.6356 58.7342 50.7943 62.8861 43.5826 65.2113C36.392 67.5294 28.7944 68.0474 21.988 67.2624C15.2262 66.4827 8.97575 64.3832 4.61912 61.2054C3.42605 60.3351 3.00666 58.8208 3.59732 57.5159C4.18799 56.2111 5.64082 55.4423 7.13709 55.643C11.4237 56.2173 15.55 55.3032 18.943 53.9965C18.275 53.6557 17.6453 53.2868 17.0599 52.9067C13.9681 50.8994 11.4736 48.1743 10.3509 46.0682C9.88622 45.1969 9.88142 44.1718 10.3379 43.2968C10.5734 42.8451 10.9177 42.4603 11.3358 42.1667C6.82152 38.6726 4.99892 33.8398 4.99892 30.6022C4.99892 29.6396 5.47185 28.7306 6.28092 28.1381C6.62112 27.889 7.00479 27.7076 7.40922 27.5983C7.07142 26.6706 6.80929 25.7334 6.60949 24.826C5.72359 20.803 5.80222 16.2624 6.76512 12.6501C7.09462 11.4139 8.19109 10.489 9.53659 10.3123C10.8821 10.1356 12.2073 10.7423 12.8862 11.846C16.4779 17.6847 23.1028 21.2536 29.2685 23.3677C32.1673 24.3616 34.852 24.995 36.8643 25.3844C37.2986 21.5686 38.4346 18.4218 40.1783 15.9225C42.4786 12.625 45.687 10.6741 49.1323 9.80415C55.0746 8.3039 61.6683 10.0131 65.9416 13.1531ZM35.827 31.5669C33.5433 31.1368 30.4047 30.4143 26.9794 29.2399C22.4553 27.6887 17.2019 25.27 12.8014 21.5233C12.8801 22.2128 12.9919 22.8964 13.1384 23.5615C13.8759 26.9106 15.2463 28.7863 16.4897 29.3694C18.0104 30.0825 18.7151 31.7547 18.1252 33.2502C17.3265 35.275 15.2259 35.441 13.3173 34.9937C14.8524 37.152 17.6115 39.3041 22.2136 40.0234C23.8009 40.2716 24.9726 41.5477 24.9985 43.0567C25.0245 44.5657 23.8973 45.8765 22.3193 46.1726L19.4178 46.7169C19.8617 47.0786 20.3423 47.4334 20.8546 47.766C23.1777 49.2744 25.5102 49.9249 27.5238 49.4529C29.032 49.0993 30.6005 49.7702 31.3044 51.0704C32.0082 52.3702 31.6605 53.954 30.4662 54.8871C28.3198 56.5628 25.8131 57.9073 23.3009 59.0231C22.1215 59.547 20.8034 60.0641 19.372 60.5192C20.4729 60.7396 21.6185 60.9203 22.8016 61.0569C28.7035 61.7375 35.2726 61.2786 41.4153 59.2985C47.537 57.3249 53.1953 53.8567 57.4286 48.5194C61.6556 43.1893 64.6056 35.8131 65.0013 25.7975C65.0323 25.0089 65.3803 24.2606 65.9753 23.7026C67.474 22.2969 68.7126 20.6857 69.322 18.7679C68.2556 19.0797 67.055 19.3495 65.625 19.6059C64.5399 19.8004 63.423 19.4784 62.642 18.7459C60.0936 16.3559 55.0536 14.7841 50.8653 15.8415C48.8943 16.3392 47.1026 17.4165 45.757 19.3455C44.3833 21.3149 43.3323 24.383 43.3323 29.0393C43.3323 29.9239 42.9326 30.7671 42.2326 31.3599C40.5726 32.765 37.7789 31.9345 35.827 31.5669Z" fill="#0F0F0F"/>
</svg>
