<svg width="100" height="95" viewBox="0 0 100 95" fill="none" xmlns="http://www.w3.org/2000/svg">
<path d="M27.5833 42.8537C33.5833 53.9126 43.25 62.9394 55.0417 68.6056L64.2083 60.0086C65.3333 58.9536 67 58.6019 68.4583 59.0708C73.125 60.5166 78.1667 61.2982 83.3333 61.2982C85.625 61.2982 87.5 63.0567 87.5 65.2059V78.8439C87.5 80.9931 85.625 82.7516 83.3333 82.7516C44.2083 82.7516 12.5 53.0138 12.5 16.3203C12.5 14.1711 14.375 12.4126 16.6667 12.4126H31.25C33.5417 12.4126 35.4167 14.1711 35.4167 16.3203C35.4167 21.205 36.25 25.8942 37.7917 30.2709C38.25 31.6386 37.9167 33.1626 36.75 34.2568L27.5833 42.8537Z" fill="black"/>
</svg>
