<svg width="363" height="83" viewBox="0 0 363 83" fill="none" xmlns="http://www.w3.org/2000/svg">
<path d="M50.4999 39.2637C50.4999 54.168 39.1951 66.2503 25.25 66.2503C11.3048 66.2503 0 54.168 0 39.2637C0 24.3593 11.3048 12.277 25.25 12.277C39.1951 12.277 50.4999 24.3593 50.4999 39.2637Z" fill="white"/>
<path d="M116 39.2637C116 54.168 104.695 66.2503 90.75 66.2503C76.8048 66.2503 65.5 54.168 65.5 39.2637C65.5 24.3593 76.8048 12.277 90.75 12.277C104.695 12.277 116 24.3593 116 39.2637Z" fill="white"/>
<path d="M21.9375 12.3164H90.7531V53.0241H21.9375V12.3164Z" fill="white"/>
<path d="M47.293 8H68.6989V12.2767H47.293V8Z" fill="white"/>
<path d="M21.8281 24.0383H30.0438V53.0247H21.8281V24.0383Z" fill="black"/>
<path d="M12.3281 34.8091H39.5378V43.3624H12.3281V34.8091Z" fill="black"/>
<path d="M47.7969 36.6698H55.6357V41.7385H47.7969V36.6698Z" fill="black"/>
<path d="M61.2812 36.5518H69.0824V41.7392H61.2812V36.5518Z" fill="black"/>
<path d="M88.6804 31.186C88.6804 34.1493 86.3857 36.5516 83.5551 36.5516C80.7244 36.5516 78.4297 34.1493 78.4297 31.186C78.4297 28.2226 80.7244 25.8203 83.5551 25.8203C86.3857 25.8203 88.6804 28.2226 88.6804 31.186Z" fill="black"/>
<path d="M88.6804 46.3527C88.6804 49.3161 86.3857 51.7184 83.5551 51.7184C80.7244 51.7184 78.4297 49.3161 78.4297 46.3527C78.4297 43.3893 80.7244 40.9871 83.5551 40.9871C86.3857 40.9871 88.6804 43.3893 88.6804 46.3527Z" fill="black"/>
<path d="M103.68 31.304C103.68 34.2674 101.386 36.6697 98.5551 36.6697C95.7244 36.6697 93.4297 34.2674 93.4297 31.304C93.4297 28.3406 95.7244 25.9384 98.5551 25.9384C101.386 25.9384 103.68 28.3406 103.68 31.304Z" fill="black"/>
<path d="M103.68 46.3527C103.68 49.3161 101.386 51.7184 98.5551 51.7184C95.7244 51.7184 93.4297 49.3161 93.4297 46.3527C93.4297 43.3893 95.7244 40.9871 98.5551 40.9871C101.386 40.9871 103.68 43.3893 103.68 46.3527Z" fill="black"/>
<g filter="url(#filter0_dd_234_449)">
<path d="M144.823 0H162.962L167.528 10.9817L163.66 17.1844L160.108 8.74472H147.043L145.394 11.4902V57.4507L147.424 62.4332H162.455V37.6226H153.512V28.8779H165.626L168.416 35.6906V71.1779H144.57L139.496 58.976V8.94808L144.823 0Z" fill="white"/>
<path d="M188.94 0H206.317V71.1779H200.356V39.3512H184.31V71.1779H178.412V17.3877L188.94 0ZM184.31 19.8281V30.6065H200.356V8.74472H191.096L184.31 19.8281Z" fill="white"/>
<path d="M215.933 0H221.894V2.23702L228.553 18.0995L238.891 0H244.916V71.1779H238.891V12.6087L233.056 22.8786V31.1149H227.539V30.5048L221.894 17.0827V71.1779H215.933V0Z" fill="white"/>
<path d="M259.098 0H282.627V8.74472H261.317L259.668 11.5918V29.488H274.319V38.2327H259.668V57.044L261.888 62.4332H282.627V71.1779H258.971L253.707 58.4676V8.8464L259.098 0Z" fill="white"/>
<path d="M297.379 0H315.708L320.909 12.7103V62.3315L315.645 71.1779H297.316L291.989 58.4676V8.8464L297.379 0ZM297.887 57.044L300.17 62.4332H313.298L314.947 59.5861V14.1339L312.727 8.74472H299.599L297.887 11.5918V57.044Z" fill="black"/>
<path d="M352.975 0H359V71.1779H352.975V45.6556L337.817 9.35481H335.978V71.1779H330.017V0H340.671L352.975 29.793V0Z" fill="black"/>
</g>
<g filter="url(#filter1_dd_234_449)">
<path fill-rule="evenodd" clip-rule="evenodd" d="M142.941 0H162.127L167.496 12.9067L162.1 21.5548L158.139 12.1476H146.068L145.024 13.8836V58.7061L146.571 62.5024H159.994V41.0575H151.038V28.9099H164.799L168.082 36.9195V74.65H142.574L137 61.2516V9.97484L142.941 0ZM161.052 39.3609V64.199H145.998L143.966 59.211V13.1995L145.617 10.451H158.702L162.259 18.9L166.134 12.6905L161.56 1.69659H143.394L138.059 10.6546V60.738L143.14 72.9534H167.023V37.4268L164.228 30.6065H152.096V39.3609H161.052ZM187.13 0H206.041V74.65H197.953V42.788H184V74.65H175.975V18.4156L187.13 0ZM182.941 41.0914H199.011V72.9534H204.982V1.69659H187.578L177.034 19.1036V72.9534H182.941V41.0914ZM213.553 0H221.641V3.4183L227.379 17.0811L237.139 0H244.698V74.65H236.547V18.7012L232.82 25.2574V34.5426H225.177V32.7538L221.641 24.3494V74.65H213.553V0ZM220.583 18.7982L226.236 32.2352V32.846H231.762V24.6006L237.605 14.3192V72.9534H243.64V1.69659H237.605L227.252 19.8162L220.583 3.93609V1.69659H214.612V72.9534H220.583V18.7982ZM257.397 0H282.467V12.1476H260.528L259.473 13.9675V29.5207H274.146V41.6683H259.473V58.2942L261.207 62.5024H282.467V74.65H257.148L251.385 60.7409V9.86157L257.397 0ZM260.638 64.199L258.415 58.8038V39.9717H273.087V31.2173H258.415V13.3013L260.066 10.451H281.408V1.69659H257.843L252.444 10.5528V60.229L257.716 72.9534H281.408V64.199H260.638ZM295.737 0H315.111L320.807 13.9142V64.7767L314.929 74.65H295.555L289.725 60.7461V9.86157L295.737 0ZM350.805 0H358.956V74.65H350.805V47.9182L336.118 12.7584H335.899V74.65H327.811V0H340.11L350.805 25.8871V0ZM351.864 31.5227L339.541 1.69659H328.87V72.9534H334.841V11.0618H336.683L351.864 47.4028V72.9534H357.898V1.69659H351.864V31.5227ZM182.941 32.337V21.5467L189.738 10.451H199.011V32.337H182.941ZM197.953 30.6404V12.1476H190.182L184 22.2403V30.6404H197.953ZM299.539 62.5024L297.75 58.2821V13.986L298.856 12.1476H310.985L312.719 16.3558V60.6825L311.664 62.5024H299.539ZM312.126 64.199H298.978L296.691 58.8038V13.3013L298.406 10.451H311.554L313.778 15.8462V38.5974V61.3487L312.126 64.199ZM296.183 1.69659H314.54L319.748 14.421V64.0972L314.476 72.9534H296.12L290.784 60.229V10.5528L296.183 1.69659Z" fill="black"/>
</g>
<defs>
<filter id="filter0_dd_234_449" x="135.496" y="0" width="227.504" height="79.1779" filterUnits="userSpaceOnUse" color-interpolation-filters="sRGB">
<feFlood flood-opacity="0" result="BackgroundImageFix"/>
<feColorMatrix in="SourceAlpha" type="matrix" values="0 0 0 0 0 0 0 0 0 0 0 0 0 0 0 0 0 0 127 0" result="hardAlpha"/>
<feOffset dy="4"/>
<feGaussianBlur stdDeviation="2"/>
<feComposite in2="hardAlpha" operator="out"/>
<feColorMatrix type="matrix" values="0 0 0 0 0 0 0 0 0 0 0 0 0 0 0 0 0 0 0.25 0"/>
<feBlend mode="normal" in2="BackgroundImageFix" result="effect1_dropShadow_234_449"/>
<feColorMatrix in="SourceAlpha" type="matrix" values="0 0 0 0 0 0 0 0 0 0 0 0 0 0 0 0 0 0 127 0" result="hardAlpha"/>
<feOffset dy="4"/>
<feGaussianBlur stdDeviation="2"/>
<feComposite in2="hardAlpha" operator="out"/>
<feColorMatrix type="matrix" values="0 0 0 0 0 0 0 0 0 0 0 0 0 0 0 0 0 0 0.25 0"/>
<feBlend mode="normal" in2="effect1_dropShadow_234_449" result="effect2_dropShadow_234_449"/>
<feBlend mode="normal" in="SourceGraphic" in2="effect2_dropShadow_234_449" result="shape"/>
</filter>
<filter id="filter1_dd_234_449" x="133" y="0" width="229.957" height="82.65" filterUnits="userSpaceOnUse" color-interpolation-filters="sRGB">
<feFlood flood-opacity="0" result="BackgroundImageFix"/>
<feColorMatrix in="SourceAlpha" type="matrix" values="0 0 0 0 0 0 0 0 0 0 0 0 0 0 0 0 0 0 127 0" result="hardAlpha"/>
<feOffset dy="4"/>
<feGaussianBlur stdDeviation="2"/>
<feComposite in2="hardAlpha" operator="out"/>
<feColorMatrix type="matrix" values="0 0 0 0 0 0 0 0 0 0 0 0 0 0 0 0 0 0 0.25 0"/>
<feBlend mode="normal" in2="BackgroundImageFix" result="effect1_dropShadow_234_449"/>
<feColorMatrix in="SourceAlpha" type="matrix" values="0 0 0 0 0 0 0 0 0 0 0 0 0 0 0 0 0 0 127 0" result="hardAlpha"/>
<feOffset dy="4"/>
<feGaussianBlur stdDeviation="2"/>
<feComposite in2="hardAlpha" operator="out"/>
<feColorMatrix type="matrix" values="0 0 0 0 0 0 0 0 0 0 0 0 0 0 0 0 0 0 0.25 0"/>
<feBlend mode="normal" in2="effect1_dropShadow_234_449" result="effect2_dropShadow_234_449"/>
<feBlend mode="normal" in="SourceGraphic" in2="effect2_dropShadow_234_449" result="shape"/>
</filter>
</defs>
</svg>
